<svg width="52" height="91" viewBox="0 0 52 91" fill="none" xmlns="http://www.w3.org/2000/svg">
<rect x="13" y="78" width="13" height="13" rx="3" fill="#EB0072"/>
<path d="M41.99 26H49.01C50.6613 26 52 24.6614 52 23.01V15.99C52 14.3386 50.6613 13 49.01 13H41.99C40.3387 13 39 11.6613 39 10.01V2.99C39 1.33868 37.6614 0 36.01 0H28.99C27.3386 0 26 1.33868 26 2.99V10.01C26 11.6613 27.3386 13 28.99 13H36.01C37.6614 13 39 14.3386 39 15.99V23.01C39 24.6614 40.3387 26 41.99 26Z" fill="#EB0072"/>
<path d="M36.01 52H28.99C27.3387 52 26 50.6614 26 49.01V41.99C26 40.3386 27.3387 39 28.99 39H36.01C37.6613 39 39 37.6613 39 36.01V28.99C39 27.3387 40.3386 26 41.99 26H49.01C50.6614 26 52 27.3387 52 28.99V36.01C52 37.6613 50.6614 39 49.01 39H41.99C40.3386 39 39 40.3386 39 41.99V49.01C39 50.6614 37.6613 52 36.01 52Z" fill="#EB0072"/>
<path d="M23.01 65H15.99C14.3387 65 13 63.6614 13 62.01V54.99C13 53.3386 14.3387 52 15.99 52H23.01C24.6613 52 26 50.6613 26 49.01V41.99C26 40.3387 27.3386 39 28.99 39H36.01C37.6614 39 39 40.3387 39 41.99V49.01C39 50.6613 37.6614 52 36.01 52H28.99C27.3386 52 26 53.3386 26 54.99V62.01C26 63.6614 24.6613 65 23.01 65Z" fill="#EB0072"/>
<rect x="13" width="26" height="13" rx="3" fill="#EB0072"/>
<path d="M10.01 26H2.99C1.33868 26 0 24.6614 0 23.01V15.99C0 14.3386 1.33868 13 2.99 13H10.01C11.6613 13 13 11.6613 13 10.01V2.99C13 1.33868 14.3386 0 15.99 0H23.01C24.6614 0 26 1.33868 26 2.99V10.01C26 11.6613 24.6614 13 23.01 13H15.99C14.3386 13 13 14.3386 13 15.99V23.01C13 24.6614 11.6613 26 10.01 26Z" fill="#EB0072"/>
<rect x="52" y="13" width="26" height="13" rx="3" transform="rotate(90 52 13)" fill="#EB0072"/>
</svg>
