<svg width="135" height="37" viewBox="0 0 135 37" fill="none" xmlns="http://www.w3.org/2000/svg">
<g clip-path="url(#clip0_5_165)">
<path d="M26.9995 1H46.6362C47.4349 1 48.0913 1.65213 48.0913 2.4668V9.86621C48.0913 10.6809 47.4349 11.333 46.6362 11.333H26.9995C26.201 11.3328 25.5454 10.6807 25.5454 9.86621V2.4668C25.5454 1.65228 26.201 1.00024 26.9995 1Z" stroke="#002C5E" stroke-width="2"/>
<path d="M2.4541 25.6667H34.3633C35.162 25.6667 35.8184 26.3188 35.8184 27.1335V34.5329C35.8184 35.3475 35.162 35.9997 34.3633 35.9997H2.4541C1.65562 35.9994 1 35.3474 1 34.5329V27.1335L1.00781 26.9831C1.08258 26.2401 1.70539 25.6669 2.4541 25.6667Z" stroke="#002C5E" stroke-width="2"/>
<path d="M63.8207 1H122.727C128.948 1 134 6.06927 134 12.333V24.667C134 30.9307 128.948 36 122.727 36H63.8207C63.0221 36 62.3639 35.3458 62.3636 34.5312V2.46875C62.3638 1.65426 63.022 1 63.8207 1ZM114.968 31.833H122.104C126.05 31.833 129.24 28.6201 129.241 24.667V12.333C129.24 8.37987 126.05 5.16699 122.104 5.16699H114.968V31.833Z" stroke="#002C5E" stroke-width="2"/>
</g>
<defs>
<clipPath id="clip0_5_165">
<rect width="135" height="37" fill="white"/>
</clipPath>
</defs>
</svg>
