<svg width="146" height="67" viewBox="0 0 146 67" fill="none" xmlns="http://www.w3.org/2000/svg">
<g clip-path="url(#clip0_5_179)">
<path d="M29.2031 1H50.4336C51.3385 1 52.0908 1.74579 52.0908 2.68262V10.7178C52.091 12.4914 53.3395 13.9849 55.0166 14.3271L55.0674 14.3379L55.1191 14.3428L55.6504 14.3955L55.6992 14.4004H63.7061C64.6109 14.4004 65.3633 15.1461 65.3633 16.083V24.1172C65.3633 26.1405 66.9933 27.7996 69.0205 27.7998H76.9795C77.8841 27.8 78.6366 28.5458 78.6367 29.4824V37.5176C78.6368 39.2913 79.8852 40.7849 81.5625 41.127L81.6123 41.1377L81.6641 41.1426L82.1953 41.1953L82.2441 41.2002H90.252C91.1568 41.2002 91.9092 41.9459 91.9092 42.8828V50.917C91.9092 52.6908 93.1576 54.1852 94.835 54.5273L94.8857 54.5381L94.9365 54.543L95.4678 54.5947L95.5176 54.5996H116.797C118.824 54.5996 120.454 52.9404 120.454 50.917V42.8828C120.454 41.9461 121.207 41.2004 122.111 41.2002H130.07C132.097 41.2001 133.727 39.5408 133.728 37.5176V29.4824C133.728 28.5455 134.48 27.7998 135.385 27.7998H143.343C144.248 27.7998 145 28.5455 145 29.4824V37.5176C145 38.4545 144.248 39.2002 143.343 39.2002H135.385C133.357 39.2002 131.728 40.8595 131.728 42.8828V50.917C131.728 51.8538 130.975 52.5995 130.07 52.5996H122.111C120.084 52.5998 118.454 54.2591 118.454 56.2822V64.3174C118.454 65.2542 117.702 66 116.797 66H95.5664C95.4485 66 95.3362 65.9884 95.2354 65.9678H95.2344C94.4862 65.815 93.9092 65.1382 93.9092 64.3174V56.2822C93.9089 54.259 92.2791 52.5996 90.252 52.5996H82.2939C81.3891 52.5996 80.6367 51.8539 80.6367 50.917V42.8828C80.6367 40.8595 79.0067 39.2004 76.9795 39.2002H69.0205C68.1159 39.2 67.3634 38.4542 67.3633 37.5176V29.4824C67.3631 27.4591 65.7333 25.7998 63.7061 25.7998H55.748C54.8432 25.7998 54.0908 25.0541 54.0908 24.1172V16.083C54.0908 14.0596 52.461 12.4004 50.4336 12.4004H29.2031C27.1758 12.4004 25.5459 14.0596 25.5459 16.083V24.1172C25.5459 25.0539 24.7933 25.7996 23.8887 25.7998H15.9297C13.9025 25.7999 12.2726 27.4592 12.2725 29.4824V37.5176C12.2723 38.4544 11.5199 39.2002 10.6152 39.2002H2.65723C1.75253 39.2002 1.00014 38.4544 1 37.5176V29.4824C1.00014 28.5456 1.75253 27.7998 2.65723 27.7998H10.6152C12.6426 27.7998 14.2725 26.1406 14.2725 24.1172V16.083C14.2725 15.1462 15.0249 14.4005 15.9297 14.4004H23.8887C25.9157 14.4002 27.5457 12.7409 27.5459 10.7178V2.68262C27.5459 1.74579 28.2983 1 29.2031 1Z" stroke="#002C5E" stroke-width="2"/>
</g>
<defs>
<clipPath id="clip0_5_179">
<rect width="146" height="67" fill="white"/>
</clipPath>
</defs>
</svg>
